<?xml version="1.0" encoding="utf-8"?>
<!-- Generator: Adobe Illustrator 16.0.0, SVG Export Plug-In . SVG Version: 6.00 Build 0)  -->
<!DOCTYPE svg PUBLIC "-//W3C//DTD SVG 1.0//EN" "http://www.w3.org/TR/2001/REC-SVG-20010904/DTD/svg10.dtd">
<svg version="1.0" id="Layer_1" xmlns="http://www.w3.org/2000/svg" xmlns:xlink="http://www.w3.org/1999/xlink" x="0px" y="0px"
	 width="349.994px" height="82.091px" viewBox="711.108 -1842.514 349.994 82.091"
	 enable-background="new 711.108 -1842.514 349.994 82.091" xml:space="preserve">
<g>
	<g>
		<g>
			<polygon fill="#077E40" points="783.709,-1785.634 776.756,-1789.094 776.532,-1788.58 783.416,-1784.969 			"/>
			<path fill="#077E40" d="M769.133-1842.51h-33.996l-24.028,24.032v34.01l24.028,24.04h33.996l24.029-24.04v-34.01L769.133-1842.51
				z M790.469-1785.721l-22.817,22.778h-31.423l-22.453-22.463l0.021-31.895l22.479-22.622h31.854l22.283,22.269L790.469-1785.721z"
				/>
			<g>
				<g>
					<g>
						<path fill="#077E40" d="M749.252-1821.816c0.924-0.12,1.484-0.238,2.594-0.238v-0.586c-0.01-0.708-0.334-1.062-1.189-1.024
							c0,0-0.576,0.161-0.763-0.119c0,0,0.021,0.198-0.197,0.476c-0.149,0.194-0.479,0.39-0.479,0.39s0.764-0.157,0.955-0.157
							c0.357,0,1.095-0.275,1.067,0.474h-0.013c-0.312,0.042-0.939,0.042-2.071,0.235L749.252-1821.816z"/>
						<g>
							<path fill="#077E40" d="M752.991-1823.782c-0.058,0-0.106,0-0.153,0l0.018,2.556h-0.012
								c-0.039,0.863-0.851,0.471-0.893,0.434c0.406,0.549,1.395,0.47,1.441-0.474l0.123-2.867
								C753.517-1824.134,753.345-1823.782,752.991-1823.782z"/>
							<path fill="#077E40" d="M753.188-1825.04c0.196,0,0.375-0.151,0.384-0.35c0.021-0.196-0.129-0.355-0.332-0.392
								c-0.197,0-0.374,0.154-0.384,0.352C752.838-1825.234,752.991-1825.077,753.188-1825.04z"/>
						</g>
					</g>
					<g>
						<path fill="#077E40" d="M760.094-1822.365c-0.051,0-0.094-0.043-0.144-0.043l-0.891,2.398h-0.013
							c-0.33,0.786-0.959,0.115-0.98,0.081c0.18,0.667,1.12,0.939,1.514,0.077l1.127-2.634
							C760.707-1822.486,760.434-1822.248,760.094-1822.365z"/>
						<path fill="#077E40" d="M756.78-1820.401c0.208,0,0.375-0.119,0.384-0.355c0.012-0.197-0.146-0.354-0.34-0.354
							c-0.197-0.04-0.374,0.117-0.386,0.316C756.429-1820.56,756.588-1820.401,756.78-1820.401z"/>
						<path fill="#077E40" d="M759.629-1823.503c0,0-0.252,0.43-0.963,0.229c0,0,0.176,0.238,0.09,0.477
							c-0.03,0.078-0.197,0.549-0.365,1.058c-0.831-0.274-2.236-0.549-2.95-0.669c0,0,0.303-0.312,0.448-0.628
							c0.267-0.548,0.148-1.175,0.148-1.175c-0.021,0.313-0.132,1.453-1.964,2.24c0,0,1.177-0.082,4.72,0.979L759.629-1823.503z"/>
					</g>
					<g>
						<path fill="#077E40" d="M768.562-1816.676l-1.072-1.135c-0.314-0.274-0.449-0.117-0.804,0.235l-0.603,0.708l0.926,0.865
							l-0.53,0.508h-0.021c-0.599,0.549-0.91-0.274-0.91-0.316c-0.102,0.63,0.637,1.258,1.326,0.673L768.562-1816.676z
							 M766.861-1816.944l0.186-0.158c0.144-0.159,0.254-0.159,0.406-0.042l0.327,0.353l-0.383,0.393L766.861-1816.944z"/>
						<path fill="#077E40" d="M766.177-1820.717c0.193,0,0.361-0.158,0.361-0.353c0.012-0.198-0.16-0.355-0.354-0.394
							c-0.206,0-0.364,0.158-0.376,0.394C765.81-1820.874,765.98-1820.717,766.177-1820.717z"/>
						<path fill="#077E40" d="M767.285-1819.927c0.205,0,0.372-0.163,0.372-0.354c0-0.199-0.159-0.357-0.362-0.357
							c-0.197,0-0.365,0.158-0.365,0.357C766.929-1820.091,767.088-1819.927,767.285-1819.927z"/>
						<path fill="#077E40" d="M765.888-1820.364c-0.352-0.235-0.536-0.196-0.822,0.234l-0.482,0.748l0.994,0.743l-0.273,0.358
							c-0.393-0.277-1.611-1.101-2.221-1.453l1.5-2.711c0,0-0.447,0.276-1.09,0.156c0,0,0.198,0.081,0.084,0.275
							c-0.031,0.042-1.385,2.71-1.398,2.752c-0.334,0.585-0.801,0.468-1.031,0.352c-0.457-0.237-0.512-0.67-0.45-0.942
							c0.06-0.278,0.169-0.747,0.933-1.102c0,0,0.115,0.197,0.354,0.041c0.222-0.158,0.295-0.552,0.295-0.552
							c-0.336,0.197-1.491,0.748-1.748,1.454c-0.266,0.707,0.114,1.333,0.558,1.495c0.261,0.115,1.062,0.388,1.541-0.435
							l0.168-0.274c0.779,0.431,1.521,0.862,2.608,1.769l1.634-2.046L765.888-1820.364z M765.362-1819.501l0.136-0.232
							c0.118-0.161,0.178-0.161,0.344-0.04l0.383,0.272l-0.312,0.431L765.362-1819.501z"/>
					</g>
					<g>
						<path fill="#077E40" d="M747.674-1824.568c0.195,0,0.344-0.196,0.332-0.39c-0.021-0.196-0.193-0.355-0.391-0.316
							c-0.208,0-0.354,0.197-0.334,0.394C747.289-1824.684,747.467-1824.568,747.674-1824.568z"/>
						<path fill="#077E40" d="M744.099-1819.03c0.195,0,0.344-0.194,0.335-0.39c-0.019-0.196-0.198-0.353-0.394-0.353
							c-0.193,0.04-0.356,0.193-0.332,0.391C743.73-1819.147,743.893-1819.03,744.099-1819.03z"/>
						<path fill="#077E40" d="M745.201-1819.579c0.193,0,0.342-0.193,0.332-0.388c-0.018-0.201-0.195-0.356-0.392-0.315
							c-0.209,0-0.354,0.192-0.334,0.388C744.818-1819.696,744.996-1819.541,745.201-1819.579z"/>
						<path fill="#077E40" d="M747.879-1822.13c-0.578,0.117-1.148,0.272-1.148,0.272l-1.297-1.372c0,0-0.196-0.272-0.559-0.235
							c-0.236,0.038-0.658,0.274-0.855,0.428c-0.213,0.157-0.37,0.437-0.166,0.671l1.001,1.137
							c-0.835,0.275-1.562,0.667-2.218,0.983c0,0,0.07-0.433,0-0.749c-0.118-0.627-0.59-1.021-0.59-1.021
							c0.177,0.237,0.758,1.22-0.222,2.944c0,0,1.03-0.859,4.05-1.961l-1.47-1.569c0.08-0.121,0.325-0.28,0.538-0.28l1.531,1.652
							c0.542-0.117,1.394-0.314,2.042-0.432l-0.364-2.318c0,0-0.087,0.394-0.333,0.551c-0.278,0.079-0.519,0.198-0.519,0.198
							s0.32-0.16,0.44,0.393L747.879-1822.13z"/>
					</g>
					<g>
						<path fill="#077E40" d="M741.136-1818.676h-0.471c-0.414,0-0.494-0.274-0.494-0.274c-0.041,0.274-0.381,0.434-0.727,0.355
							c-0.286-0.044-0.501-0.355-0.52-0.749c-0.008-0.468,0.412-0.787,0.738-0.624c-0.041,0.156,0.057,0.311,0.153,0.311
							c0.129,0.041,0.313,0,0.304-0.195c-0.018-0.198-0.195-0.239-0.203-0.239c-0.67-0.154-1.277,0.318-1.308,0.867
							c-0.021,0.511,0.325,1.022,0.796,1.022c-0.257,0.197-0.5,0.392-0.709,0.59l-2.138-2.438c0,0,0.079,0.433-0.226,0.902
							c0,0,0.117-0.114,0.241,0.038c0.101,0.12,1.134,1.218,1.701,1.848c-0.206,0.194-0.362,0.354-0.479,0.47
							c-0.11-0.038-0.227-0.077-0.354-0.077c-0.511-0.039-0.962,0.354-1.001,0.865c-0.018,0.192,0.039,0.352,0.126,0.508
							c-0.116,0.156-0.251,0.357-0.372,0.471l-2.562-1.964c0,0,0.158,0.434-0.051,0.942c0,0,0.09-0.159,0.25-0.039
							c0.166,0.159,2.475,1.848,2.475,1.848l0.117-0.159c0.027,0,0.057-0.042,0.066-0.042c0.069-0.074,0.293-0.391,0.512-0.661
							c0.088,0.036,0.188,0.074,0.293,0.074c0.514,0.042,0.953-0.354,0.994-0.864c0.018-0.158-0.02-0.316-0.096-0.472
							C739.23-1817.416,740.485-1818.281,741.136-1818.676z M737.347-1815.612c-0.188-0.039-0.315-0.198-0.305-0.353
							c0.008-0.196,0.166-0.314,0.354-0.314c0.176,0,0.312,0.158,0.292,0.354C737.682-1815.726,737.521-1815.612,737.347-1815.612z"
							/>
						<g>
							<path fill="#077E40" d="M734.068-1817.34c0,0,0.902-0.587,1.13-1.374h0.155c0,0,0.05,0.392-0.372,0.864
								C734.566-1817.378,734.068-1817.34,734.068-1817.34z"/>
							<path fill="#077E40" d="M734.487-1816.987c0,0,0.906-0.625,1.134-1.413h0.151c0,0,0.042,0.433-0.369,0.862
								C734.989-1817.066,734.487-1816.987,734.487-1816.987z"/>
						</g>
					</g>
				</g>
				<g>
					<path fill="#077E40" d="M748.42-1835.642c-0.039-0.312,0.229-0.312,0.229-0.312c-0.828-0.12-1.229-0.669-1.229-0.669
						l0.767,5.576c0.03,0.197-0.097,0.354-0.276,0.395c-0.197,0.036-0.365-0.081-0.391-0.277l-0.928-5.537
						c0,0-0.231,0.628-0.969,1.021c0,0,0.245-0.115,0.307,0.197c0.017,0.116,0.283,1.491,0.51,2.708
						c-0.441,0.082-0.887,0.196-1.296,0.316l-0.375-1.768c0,0-0.196,0.667-0.903,1.098c0,0,0.235-0.116,0.305,0.201
						c0.03,0.117,0.106,0.432,0.168,0.666c-0.346,0.116-0.709,0.196-1.021,0.275l-0.484-1.688c0,0-0.152,0.625-0.841,1.097
						c0,0,0.226-0.115,0.313,0.201c0.039,0.115,0.248,0.667,0.248,0.667c-0.317,0.074-0.641,0.155-0.918,0.272l-0.561-1.61
						c0,0-0.137,0.63-0.803,1.141c0,0,0.236-0.12,0.332,0.16c0.021,0.075,1.031,2.785,1.031,2.785
						c0.113,0.316-0.016,0.748-0.598,0.826c-0.08,0-0.156-0.04-0.236-0.078c0.156,0.114,0.326,0.157,0.502,0.157
						c0.6,0,1.287-0.47,1.06-1.26l-0.438-1.293c1.393-0.551,3.031-0.986,4.668-1.296c0.103,0.51,0.189,0.859,0.189,0.859
						c0.077,0.477,0.471,0.828,0.93,0.907c0.258,0,0.346,0.355,0.346,0.355c0-0.193,0.109-0.396,0.177-0.473
						c0.451-0.157,0.728-0.591,0.696-1.06l-0.01,0.038C748.92-1831.047,748.447-1835.445,748.42-1835.642z"/>
					<path fill="#077E40" d="M759.418-1835.758c0.273,0,0.485-0.236,0.485-0.51c0-0.279-0.212-0.472-0.485-0.472
						c-0.271,0-0.498,0.193-0.498,0.472C758.92-1835.994,759.147-1835.758,759.418-1835.758z"/>
					<path fill="#077E40" d="M775.934-1821.228l-0.483-0.63l3.485-3.059c0,0-0.204,0.625,0.121,1.413c0,0-0.128-0.235-0.366-0.04
						C778.467-1823.348,775.934-1821.228,775.934-1821.228z"/>
					<path fill="#077E40" d="M729.571-1822.094l-0.512,0.63l-3.542-3.062c0,0,0.654,0.117,1.382-0.316c0,0-0.204,0.157,0.022,0.392
						L729.571-1822.094z"/>
					<path fill="#077E40" d="M741.754-1834.503c0.265,0,0.48-0.235,0.48-0.51c0-0.273-0.216-0.472-0.48-0.472
						c-0.266,0-0.479,0.198-0.479,0.472C741.274-1834.738,741.487-1834.503,741.754-1834.503z"/>
					<path fill="#077E40" d="M742.154-1833.284c0.268,0,0.482-0.194,0.482-0.473c0-0.273-0.215-0.509-0.482-0.509
						c-0.266,0-0.48,0.235-0.48,0.509C741.674-1833.478,741.888-1833.284,742.154-1833.284z"/>
					<path fill="#077E40" d="M745.354-1829.005c0.269,0,0.471-0.196,0.471-0.47c0-0.271-0.204-0.511-0.471-0.511
						c-0.263,0-0.479,0.241-0.479,0.511C744.875-1829.2,745.092-1829.005,745.354-1829.005z"/>
					<path fill="#077E40" d="M722.131-1806.856c0.229-1.412,0.365-2.04,0.844-3.648l-0.825-0.275
						c-0.696-0.157-1.845,0.08-2.101,1.175c0,0-0.129,1.023-0.51,1.064c0,0,0.256,0.077,0.553,0.506
						c0.195,0.277,0.32,0.867,0.32,0.867s0.227-1.141,0.293-1.415c0.162-0.508,0.162-1.728,1.211-1.293l0,0
						c-0.119,0.469-0.385,1.175-0.66,2.868L722.131-1806.856z"/>
					<path fill="#077E40" d="M738.67-1832.224c0,0-0.068,0.551-0.508,0.786c-1.06,0.511-1.166,1.297-0.875,1.924l0.502,0.982
						l1.312-0.667l0.434,0.944l0.011,0.038c0.451,1.021-0.777,1.059-0.847,1.021c0.824,0.434,1.994-0.233,1.484-1.415
						L738.67-1832.224z M738.063-1829.672c-0.138-0.235-0.188-0.43-0.118-0.627c0.066-0.158,0.459-0.394,0.459-0.394l0.325,0.707
						L738.063-1829.672z"/>
					<path fill="#077E40" d="M730.111-1826.684c0,0,0.107,0.544-0.247,0.902c-0.853,0.824-0.714,1.607-0.241,2.118l0.774,0.784
						l1.039-1.099l0.707,0.788h0.01c0.755,0.863-0.401,1.294-0.489,1.294c0.924,0.12,1.822-0.862,0.979-1.842L730.111-1826.684z
						 M730.307-1824.054c-0.206-0.199-0.313-0.354-0.306-0.548c0.012-0.197,0.324-0.552,0.324-0.552l0.522,0.552L730.307-1824.054z"
						/>
					<path fill="#077E40" d="M734.912-1831.008c-0.156-0.273,0.086-0.355,0.086-0.355c-0.804,0.199-1.381-0.113-1.381-0.113
						l1.942,3.257c-0.511,0.315-1.298,0.9-2.081,1.493c0,0-0.126-0.706-0.314-0.982c-0.312-0.47-0.854-0.626-0.854-0.626
						c0.315,0.315,1.159,1.334,0.345,3.339c0,0,0.775-0.867,4.023-2.908C736.677-1827.903,735.069-1830.733,734.912-1831.008z"/>
					<path fill="#077E40" d="M762.685-1835.368c0,0-0.395,0.396-0.865,0.236c-1.148-0.273-1.736,0.235-1.917,0.941l-0.233,1.061
						l1.439,0.353l-0.568,2.004c0,0-0.098,0.748-0.488,0.671c-0.383-0.12-0.168-0.787-0.168-0.787l0.272-1.215
						c0,0-1.567-0.354-1.794-0.396c0,0,0.236-0.979-0.296-1.648c-0.485-0.667-0.959-0.667-0.959-0.667l0.243-1.808
						c0,0-0.354,0.865-1.354,0.825h-0.01c-0.01,0-0.01,0,0,0c0.146,0.04,0.441,0.114,0.383,0.55l-0.041,0.352
						c0,0-0.619-0.076-1.248,0.475c-0.529,0.506-0.557,1.412-0.557,1.412s-0.452-0.041-0.589-0.041l0.011-0.667
						c-0.05-0.549-0.553-1.18-1.533-1.214c0,0-1.089,0.117-1.353-0.279c0,0,0,0.356-0.235,0.593
						c-0.256,0.273-0.656,0.426-0.656,0.426s1.096-0.075,1.371-0.035c0.922,0.079,1.68-0.196,1.666,1.096
						c0,0.042-3.019,0.121-3.019,0.121l0.044,0.867c0,0,2.799-0.201,4.253-0.042v1.1c0,0,0.038,1.023,0.929,1.099
						c1.035,0.079,1.148-0.902,1.148-0.902l0.148-1.063c0.539,0.12,1.678,0.316,2.535,0.513l-0.121,0.746
						c0,0-0.205,0.904,0.603,1.254c0.086,0.121,0.077,0.278,0.045,0.354c0,0,0.11-0.193,0.276-0.272
						c0.621,0.079,0.869-0.277,1.029-0.826C761.082-1830.182,762.594-1835.092,762.685-1835.368z M755.859-1830.929
						c0,0-0.037,0.277-0.361,0.277c-0.234,0-0.355-0.355-0.355-0.355l0.042-1.095l0.805,0.075L755.859-1830.929z M756.086-1832.894
						l-0.814-0.076c0.045-0.588,0.361-1.139,0.962-1.139L756.086-1832.894z M757.668-1832.617l-0.824-0.16l0.133-1.253
						c0.309,0.115,0.562,0.353,0.68,0.59C757.784-1833.13,757.668-1832.617,757.668-1832.617z M760.588-1833.834
						c0.072-0.275,0.139-0.432,0.316-0.549c0.268-0.119,0.661,0.041,0.661,0.041l-0.214,0.745L760.588-1833.834z"/>
					<path fill="#077E40" d="M718.677-1805.163c0.566,0.273,0.783,0.548,0.783,0.548c0.631-0.548,1.6-0.195,1.619,0.552
						c0.018,0.94-0.727,1.021-0.959,1.021c-0.268,0-0.679,0.037-1.582-0.904c-0.992-0.98-1.443-0.667-1.629-0.471c0,0,0,0,0.01,0
						c-0.062,0.081-0.097,0.159-0.097,0.276c0.009,0.237,0.202,0.43,0.45,0.43c0.234-0.04,0.432-0.235,0.423-0.47
						c0-0.078-0.03-0.117-0.062-0.195c0.218,0.039,0.316,0.117,0.728,0.591c0.875,0.938,1.483,1.137,1.927,1.097
						c0.616,0,1.461-0.588,1.441-1.57c-0.032-1.181-1.178-1.57-1.637-1.533C719.147-1805.793,718.677-1805.163,718.677-1805.163z"/>
					<path fill="#077E40" d="M776.53-1826.372c0,0,0.218,0.155-0.009,0.394c-0.326,0.314-1.903,1.964-1.903,1.964
						c-0.133-0.12-0.405-0.394-0.745-0.67c0.041-0.115,0.067-0.273,0.067-0.393c0.004-0.275-0.205-0.746-0.205-0.746
						c-0.133-0.195,0.017-0.47,0.017-0.47s-0.205,0.198-0.511,0.076c-0.166-0.076-0.341-0.117-0.541-0.155
						c-0.235,0-0.446,0.08-0.627,0.193c-0.226-0.155-1.022-0.744-1.022-0.744l2.271-3.179c0,0-0.609,0.274-1.395,0
						c0,0,0.236,0.116,0.07,0.356c-0.14,0.193-2.367,3.528-2.367,3.528c-0.1,0.159-0.312,0.239-0.475,0.122
						c-0.15-0.122-0.199-0.319-0.095-0.472l1.146-1.847c0.264-0.354,0.313-1.139-0.479-1.612c-0.644-0.394-3.513-1.845-5.117-2.433
						l4.226,0.902c0.528,0.153,0.629,0.353,0.655,0.434c0,0,0.208-0.708,1.375-0.629l-6.854-1.491l-0.42,1.216
						c1.267,0.43,3.556,1.491,4.92,2.2c0.606,0.353,1.336,0.59,0.666,1.609c0,0-2.729-1.729-5.508-2.79c0,0-0.586-0.156-0.613-0.469
						c0,0-0.133,0.784-1.26,0.663c0,0,3.347,0.907,6.97,3.266l-0.334,0.547c-0.261,0.434-0.206,0.944,0.091,1.336
						c0.172,0.16,0.038,0.473,0.038,0.473c0.114-0.161,0.319-0.199,0.419-0.199c0.443,0.199,0.893,0.078,1.189-0.314l0,0
						l0.451-0.629c0,0,0.178,0.155,0.442,0.393c0.099,0.079,0.265,0.196,0.472,0.354c-0.062,0.156-0.1,0.313-0.1,0.473
						c0,0.706,0.562,1.254,1.246,1.254c0.236,0,0.445-0.038,0.63-0.154c0.254,0.231,0.438,0.39,0.452,0.39l0.75,0.787l3.382-3.258
						C777.897-1826.095,777.258-1825.941,776.53-1826.372z M772.683-1824.568c-0.286,0-0.512-0.232-0.512-0.546
						c0-0.277,0.24-0.515,0.521-0.515c0.289,0,0.519,0.238,0.519,0.551C773.203-1824.8,772.981-1824.568,772.683-1824.568z"/>
					<g>
						<path fill="#077E40" d="M781.42-1804.419c0.264,0,0.474-0.232,0.474-0.51c0-0.272-0.21-0.471-0.474-0.471
							c-0.265,0-0.478,0.198-0.478,0.471C780.942-1804.651,781.155-1804.419,781.42-1804.419z"/>
						<path fill="#077E40" d="M785.022-1806.186c-0.276-0.197-0.616-0.626-0.616-0.626s0.186,1.062,0.206,1.332
							c0.038,0.591,0.431,1.694-0.696,1.694v-0.042c-0.17-2.003-0.705-4.635-0.705-4.635c-0.017-0.038,3.638-0.943,3.638-0.943
							s-0.628-0.236-1.05-0.941c0,0,0.023,0.271-0.262,0.353l-3.357,0.861c0.06,0.239,0.125,0.476,0.195,0.79l0,0
							c0.276,1.177,0.58,2.903,0.754,5.496l0.862-0.039c0.72-0.078,1.693-0.627,1.565-1.764c0,0-0.244-0.79,0.142-1.26
							C785.696-1805.911,785.442-1805.871,785.022-1806.186z"/>
						<path fill="#077E40" d="M780.273-1822.013c0.261,0,0.482-0.194,0.488-0.472c0.009-0.272-0.193-0.511-0.461-0.511
							c-0.26,0-0.479,0.199-0.491,0.471C779.804-1822.248,780.006-1822.013,780.273-1822.013z"/>
						<path fill="#077E40" d="M781.414-1820.401c0.262,0,0.479-0.198,0.487-0.474c0.009-0.275-0.194-0.509-0.459-0.509
							c-0.269,0-0.491,0.197-0.491,0.471C780.942-1820.639,781.144-1820.401,781.414-1820.401z"/>
						<path fill="#077E40" d="M784.108-1811.567c-0.28-0.746-1.028-1.647-2.138-1.136c-0.116-0.319-0.873-1.967-1.027-2.357
							c0.458,0.037,1.176,0.666,1.176,0.666s0.51-0.472,0.399-1.177c0,0,0.169-0.239,0.132-0.431
							c-0.092-0.511,0.163-0.631,0.163-0.631s-0.295,0.121-0.62-0.272c-0.115-0.12-0.38-0.16-0.38-0.16
							c-0.729-0.666-1.394-0.312-1.394-0.312c0.135,0.511-0.078,1.175-0.078,1.175c-0.846-1.451-1.354-2.275-1.354-2.275l0.924-0.63
							l1.529-0.982c0,0-0.658,0-1.29-0.549c0,0,0.122,0.239-0.14,0.395c-0.047,0.041-0.135,0.076-0.25,0.154
							c-0.746-0.94-1.598-1.373-2.987-0.233c0.913,1.177,2.231,3.38,2.997,4.793l0.447,0.193l-0.107,0.471
							c1.111,2.241,1.857,4.674,1.857,4.674l2.798-0.822C784.767-1811.013,784.285-1811.093,784.108-1811.567z M781.057-1816.751
							c0,0,0.461,0.041,0.728,0.59c0.223,0.511,0.049,0.901,0.049,0.901s-0.236-0.233-0.867-0.431
							C780.969-1815.69,781.106-1816.044,781.057-1816.751z M777.936-1820.01c0.5-0.314,0.873-0.041,1.136,0.394l-0.564,0.433
							L777.936-1820.01z M782.483-1811.133l-0.269-0.787c0.283-0.158,0.488-0.195,0.776-0.034c0.294,0.151,0.401,0.545,0.401,0.545
							L782.483-1811.133z"/>
					</g>
					<path fill="#077E40" d="M728.435-1820.756l-3.535-3.026c0,0,0.214,0.633-0.098,1.417c0,0,0.127-0.235,0.361-0.043l2.131,1.731
						l-0.668,0.865h0.018c-0.098,0-0.193-0.04-0.292-0.04c-0.345,0-0.647,0.155-0.872,0.351c-0.148,0.081-0.387,0-0.387,0
						s0.168,0.198,0.119,0.392c-0.069,0.159-0.109,0.316-0.109,0.514c0,0.273,0.1,0.551,0.268,0.745
						c-0.197,0.353-0.916,1.534-0.925,1.492c-0.028-0.317,0.042-1.058,0.042-1.058c-0.436-0.238-0.994-0.121-1.443,0.274
						c-0.199-0.041-0.402,0.116-0.562,0.353c-0.174,0.115-0.401,0.04-0.401,0.04s0.195,0.199,0.176,0.393
						c-0.064,0.237-0.058,0.433,0.031,0.591c-0.07,0.589,0.125,1.138,0.578,1.374c0,0,0.439-0.393,0.903-0.586
						c0,0-0.541,1.18-0.788,1.921l-3.542-1.334c0,0,0.411,0.51,0.373,1.334c0,0,0.038-0.233,0.325-0.154
						c0.285,0.114,3.375,1.178,3.375,1.178s0.857-2.162,1.168-2.87l-0.157-0.508l0.541-0.157c0.342-0.667,0.667-1.257,0.95-1.73
						l0.051-0.115c0.088,0.038,0.178,0.038,0.268,0.038c0.674,0,1.236-0.549,1.248-1.217c0-0.274-0.088-0.514-0.229-0.708
						L728.435-1820.756z M723.486-1815.612c-0.275,0.118-0.449,0.353-0.449,0.353c-0.17-0.391-0.103-0.743,0.026-0.979
						c0.125-0.236,0.461-0.552,0.767-0.59c0,0-0.041,0.315-0.021,0.59c0.021,0.194,0.057,0.47,0.057,0.47
						S723.645-1815.69,723.486-1815.612z M726.334-1818.085c-0.275,0-0.504-0.237-0.504-0.51c0-0.274,0.236-0.514,0.516-0.514
						c0.281,0,0.509,0.24,0.509,0.514C726.842-1818.322,726.616-1818.085,726.334-1818.085z"/>
				</g>
			</g>
			<g>
				<path fill="#077E40" d="M780.267-1780.018l-2.785-2.081l0.229-0.276l-0.488-0.352l-0.207,0.273l-1.08-0.82l-0.352,0.428
					l1.067,0.863l-0.399,0.514c-0.158,0.195-0.475-0.079-0.475-0.079l-1.75-1.452c-0.281-0.197-0.182-0.434-0.182-0.434l0.703-0.902
					l-0.461-0.354c0,0-0.813,1.02-0.84,1.058c-0.385,0.435,0.096,0.786,0.096,0.786l2.177,1.886
					c0.317,0.274,0.476,0.196,0.622,0.081c-0.245,0.354,0.146,0.588,0.146,0.588l2.082,1.848c0,0,0.434,0.311,0.793-0.157
					L780.267-1780.018z M779.328-1779.624c-0.019,0.04-0.271,0.354-0.271,0.354c-0.273,0.277-0.52,0.081-0.52,0.081l-1.603-1.377
					c-0.274-0.234-0.313-0.312-0.236-0.432l0.435-0.593l1.961,1.573C779.231-1779.899,779.47-1779.821,779.328-1779.624z"/>
				<path fill="#077E40" d="M782.027-1800.646l-1.76-0.081c-0.319,0-0.566,0.156-0.577,0.982c-0.084,0.823,0.127,0.939,0.528,1.02
					l2.416,0.197c0,0,0.246,0.077,0.65-0.472l0.615-0.86c0.184-0.201,0.404-0.163,0.979-0.122l1.517,0.076
					c0.175,0.045,0.381,0.079,0.373,0.313l-0.066,0.554c-0.012,0.231-0.149,0.312-0.423,0.231l-1.641-0.152l-0.038,0.628l2.127,0.23
					c0.493,0,0.659-0.354,0.67-0.668l0.077-1.06c0.018-0.472-0.264-0.67-0.747-0.711l-2.374-0.07c-0.389,0-0.657,0-0.764,0.195
					l-0.709,0.943c-0.334,0.471-0.519,0.313-0.519,0.313l-1.608-0.081c-0.383,0-0.494-0.115-0.443-0.508
					c0.04-0.396,0.072-0.473,0.521-0.434l1.157,0.078L782.027-1800.646z"/>
				<polygon fill="#077E40" points="785.689,-1790.44 785.031,-1790.634 784.785,-1789.931 782.166,-1790.874 782.347,-1791.42 
					781.766,-1791.614 781.578,-1791.106 778.691,-1792.126 778.867,-1792.673 778.336,-1792.869 777.963,-1791.815 
					785.199,-1789.065 				"/>
				<polygon fill="#077E40" points="787.272,-1797.719 786.694,-1797.763 786.594,-1796.933 779.525,-1797.881 779.435,-1797.367 
					787.065,-1796.229 				"/>
				<polygon fill="#077E40" points="783.1,-1784.333 776.289,-1788.065 776.041,-1787.594 779.143,-1785.042 775.408,-1786.533 
					775.094,-1786.067 781.543,-1781.783 781.941,-1782.33 777.858,-1784.962 782.366,-1783.115 778.51,-1786.18 782.758,-1783.783 
									"/>
				<path fill="#077E40" d="M783.336-1793.346l2.972,0.781l0.188-0.666l-3.181-0.787c0,0-0.431,0-0.537,0.234
					c-0.03-0.154-0.073-0.467-0.474-0.467l-2.693-0.629c0,0-0.623-0.237-0.744,0.271l-0.431,1.414l7.399,2.356l0.197-0.669
					l-3.328-0.977l0.188-0.711C782.963-1793.426,783.138-1793.387,783.336-1793.346z M782.092-1792.68l-2.869-0.822l0.146-0.591
					c0,0,0-0.313,0.34-0.198c0.355,0.118,2.291,0.588,2.291,0.588s0.389,0.084,0.316,0.357L782.092-1792.68z"/>
				<polygon fill="#077E40" points="777.013,-1789.634 784.024,-1786.255 784.306,-1786.883 779.084,-1789.242 784.67,-1787.826 
					784.944,-1788.453 777.758,-1791.364 777.529,-1790.849 781.525,-1789.164 777.217,-1790.144 				"/>
				<path fill="#077E40" d="M786.847-1795.31l0.101-0.592l-7.733-0.625l-0.129,0.591l7.412,2.354l0.154-0.667l-1.762-0.472
					l0.156-0.747L786.847-1795.31z M784.412-1794.842l-3.873-1.094l4.002,0.427L784.412-1794.842z"/>
				<g>
					<polygon fill="#077E40" points="724.959,-1798.33 725.013,-1797.777 717.392,-1796.796 717.314,-1797.504 					"/>
					<polygon fill="#077E40" points="725.143,-1797.388 717.488,-1796.249 717.586,-1795.619 722.955,-1796.524 717.754,-1794.522 
						717.852,-1793.892 725.481,-1795.582 725.379,-1796.053 720.59,-1795.109 725.232,-1796.874 					"/>
					<polygon fill="#077E40" points="717.293,-1797.777 720.957,-1799.55 724.938,-1798.567 724.879,-1799.117 721.817,-1799.861 
						724.86,-1799.978 724.84,-1800.49 717.104,-1800.258 717.117,-1799.584 720.129,-1799.785 717.233,-1798.448 					"/>
					<path fill="#077E40" d="M721.648-1791.733l-0.301-1.057l-0.562,0.151l0.137,0.471l-1.433,0.471
						c-0.215,0.043-0.468-0.076-0.53-0.312l-0.105-0.474c-0.079-0.273,0.176-0.354,0.4-0.393l5.41-1.414
						c0.37-0.076,0.5-0.076,0.627,0.428c0.108,0.396-0.117,0.514-0.412,0.554l-1.602,0.471l0.158,0.553l2.045-0.625
						c0.419-0.123,0.637-0.277,0.381-1.146c-0.206-0.821-0.381-0.939-0.904-0.821l-6.162,1.454c-0.498,0.156-0.748,0.35-0.608,0.942
						c0,0,0.176,0.944,0.726,0.902l-0.404,0.121l0.209,0.664L721.648-1791.733z"/>
				</g>
				<path fill="#077E40" d="M769.453-1779.948l4.045,5.144c0.219,0.317,0.268,0.47,0.104,0.631l-0.361,0.312
					c-0.247,0.156-0.43,0-0.627-0.271l-3.899-5.26l-0.438,0.309l4.133,5.812c0.223,0.355,0.559,0.397,0.823,0.197l0.992-0.786
					c0.288-0.234,0.499-0.433,0.194-0.863l-4.586-5.534L769.453-1779.948z"/>
				<path fill="#077E40" d="M751.953-1773.31c0.01-0.397-0.068-0.67-0.963-0.71c-0.861-0.077-1.049,0.157-1.068,0.588l-0.619,6.444
					c-0.031,0.471,0.363,0.666,0.847,0.666l0.938,0.037c0.48,0.042,0.721-0.152,0.748-0.625L751.953-1773.31z M750.767-1766.873
					l-0.491-0.035c-0.249,0-0.306-0.276-0.296-0.513l0.412-5.538c0.039-0.352,0.09-0.509,0.591-0.474
					c0.399,0.043,0.448,0.159,0.431,0.514l-0.193,5.656C751.207-1767.025,750.998-1766.873,750.767-1766.873z"/>
				<path fill="#077E40" d="M765.802-1776.733c-0.207-0.352-0.409-0.547-1.198-0.153c-0.784,0.356-0.82,0.668-0.636,1.06
					l2.632,5.895c0.216,0.426,0.638,0.392,1.069,0.192l0.844-0.43c0.431-0.239,0.52-0.471,0.314-0.902L765.802-1776.733z
					 M767.932-1770.524l-0.451,0.196c-0.218,0.076-0.36-0.08-0.472-0.313l-2.406-5.026c-0.146-0.354-0.166-0.475,0.288-0.708
					c0.36-0.155,0.471-0.079,0.637,0.271l2.524,4.99C768.16-1770.919,768.15-1770.64,767.932-1770.524z"/>
				<polygon fill="#077E40" points="753.66,-1769.7 753.643,-1770.364 753.101,-1770.326 753.033,-1773.35 753.707,-1773.35 
					753.679,-1773.981 752.521,-1773.94 752.504,-1766.203 753.16,-1766.203 753.11,-1769.66 				"/>
				<path fill="#077E40" d="M758.402-1771.033l-0.581-2.944c0,0-0.087-0.549-0.598-0.435l-1.462,0.277l0.902,7.617l0.715-0.121
					l-0.485-3.412l1.146-0.236C758.039-1770.287,758.551-1770.287,758.402-1771.033z M757.5-1770.835l-0.72,0.156l-0.38-2.985
					l0.473-0.08c0.235-0.081,0.399,0,0.42,0.158l0.432,2.355C757.724-1771.231,757.774-1770.879,757.5-1770.835z"/>
				<polygon fill="#077E40" points="761.177,-1767.382 761.043,-1767.931 760.246,-1767.737 759.6,-1770.524 760.141,-1770.679 
					759.99,-1771.271 759.463,-1771.153 758.767,-1774.135 759.383,-1774.295 759.248,-1774.884 758.097,-1774.569 
					759.691,-1766.989 				"/>
				<polygon fill="#077E40" points="772.444,-1772.525 772.125,-1772.996 771.399,-1772.525 769.78,-1774.923 770.26,-1775.315 
					769.947,-1775.785 769.453,-1775.433 767.744,-1778.027 768.373,-1778.457 768.066,-1778.931 767.01,-1778.222 
					771.147,-1771.621 				"/>
				<polygon fill="#077E40" points="770.927,-1771.506 770.61,-1772.057 769.897,-1771.621 766.312,-1777.789 765.861,-1777.516 
					769.619,-1770.76 				"/>
				<polygon fill="#077E40" points="762.969,-1767.891 760.817,-1774.683 761.33,-1774.845 761.158,-1775.39 759.549,-1774.923 
					759.719,-1774.335 760.283,-1774.53 762.309,-1767.696 				"/>
				<polygon fill="#077E40" points="777.445,-1776.805 771.957,-1782.27 771.537,-1781.875 773.784,-1778.498 770.7,-1781.01 
					770.241,-1780.575 775.263,-1774.726 775.777,-1775.2 772.586,-1778.848 776.377,-1775.707 773.549,-1779.834 
					776.965,-1776.335 				"/>
				<path fill="#077E40" d="M764.516-1771.7l1.139,2.826l0.657-0.237l-1.344-3.178c0,0-0.198-0.158-0.444-0.119
					c0.106-0.116,0.329-0.314,0.079-0.667l-1.078-2.513c0,0-0.188-0.67-0.668-0.434l-1.402,0.51l2.541,7.345l0.654-0.234
					l-1.197-3.299l0.674-0.234C764.357-1772.057,764.438-1771.899,764.516-1771.7z M763.232-1772.289l-1.038-2.789l0.537-0.237
					c0,0,0.258-0.195,0.38,0.155c0.127,0.315,0.879,2.201,0.879,2.201s0.146,0.313-0.121,0.394L763.232-1772.289z"/>
				<path fill="#077E40" d="M741.465-1773.707l0.672-1.607c0.109-0.315,0.059-0.586-0.736-0.901
					c-0.716-0.353-0.915-0.194-1.107,0.196l-1.043,2.156c0,0-0.139,0.235,0.227,0.789l0.591,0.865
					c0.187,0.312,0.049,0.431-0.062,0.668l-0.756,1.726c-0.067,0.157-0.215,0.312-0.44,0.195l-0.484-0.234
					c-0.214-0.075-0.174-0.233-0.055-0.508l0.676-1.455l-0.569-0.274l-0.933,1.964c-0.178,0.434,0.099,0.707,0.382,0.828l0.963,0.43
					c0.441,0.196,0.777,0.037,0.959-0.393l0.905-2.276c0.14-0.354,0.198-0.589-0.028-0.905l-0.56-0.824
					c-0.345-0.512-0.16-0.627-0.16-0.627l0.659-1.455c0.164-0.352,0.322-0.392,0.626-0.276c0.353,0.161,0.427,0.243,0.249,0.671
					l-0.471,1.059L741.465-1773.707z"/>
				<path fill="#077E40" d="M732.222-1782.739l-4.909,4.558c-0.245,0.238-0.401,0.313-0.567,0.156l-0.373-0.474
					c-0.166-0.155-0.127-0.309,0.127-0.546l5.086-4.357l-0.326-0.397l-5.467,4.56c-0.295,0.273-0.295,0.586-0.082,0.824l0.701,0.784
					c0.332,0.392,0.596,0.47,0.959,0.151l5.174-4.903L732.222-1782.739z"/>
				<polygon fill="#077E40" points="733.888,-1771.347 734.185,-1771.861 733.44,-1772.334 735.069,-1774.726 735.51,-1774.45 
					735.854,-1774.961 735.42,-1775.275 737.111,-1777.789 737.719,-1777.397 738.033,-1777.906 736.996,-1778.573 
					732.557,-1772.251 				"/>
				<polygon fill="#077E40" points="742.832,-1767.464 744.778,-1774.371 745.457,-1774.217 745.594,-1774.768 743.799,-1775.275 
					743.61,-1774.683 744.258,-1774.489 742.195,-1767.656 				"/>
				<path fill="#077E40" d="M737.295-1772.76l-1.312,2.509l0.62,0.317l1.43-2.827c0.236-0.479,0-0.63-0.096-0.708
					c0.145,0,0.422,0.078,0.588-0.24c0.352-0.627,1.293-2.51,1.293-2.51s0.312-0.55-0.146-0.785l-1.287-0.707l-3.943,6.638
					l0.58,0.351l1.734-3.021l0.424,0.274C737.551-1773.239,737.396-1772.959,737.295-1772.76z M737.059-1774.295l1.483-2.59
					l0.541,0.235c0.284,0.157,0.078,0.393-0.021,0.547l-1.06,2.006c0,0-0.098,0.273-0.344,0.158L737.059-1774.295z"/>
				<polygon fill="#077E40" points="742.961,-1775.588 743.424,-1775.433 740.957,-1768.085 740.282,-1768.283 				"/>
				<polygon fill="#077E40" points="734.645,-1780.384 735.028,-1780.03 730.141,-1774.056 729.658,-1774.45 				"/>
				<polygon fill="#077E40" points="732.907,-1781.99 727.422,-1776.53 727.864,-1776.104 731.565,-1779.91 728.601,-1775.433 
					729.078,-1775 734.166,-1780.733 733.783,-1781.126 730.879,-1777.946 733.225,-1781.638 				"/>
				<polygon fill="#077E40" points="747.849,-1774.335 747.27,-1774.412 746.338,-1771.469 746.504,-1774.569 745.905,-1774.683 
					745.789,-1770.326 745.032,-1766.95 745.7,-1766.83 746.348,-1770.209 				"/>
				<polygon fill="#077E40" points="735.226,-1779.871 731.135,-1773.274 731.592,-1772.919 736.767,-1778.733 736.307,-1779.086 
					732.683,-1774.845 735.686,-1779.518 				"/>
				<g>
					<path fill="#077E40" d="M720.638-1786.076l0.283,0.549l6.608-4.048l-0.265-0.546l-7.344,2.438l0.258,0.625l1.707-0.666
						l0.314,0.706L720.638-1786.076z M722.359-1787.885l3.775-1.375l-3.504,1.965L722.359-1787.885z"/>
					<polygon fill="#077E40" points="721.944,-1783.642 722.248,-1783.092 728.875,-1787.097 728.582,-1787.531 725.379,-1785.644 
						724.929,-1786.472 728.179,-1788.237 727.983,-1788.668 721.097,-1785.174 721.393,-1784.542 724.418,-1786.235 
						724.9,-1785.371 					"/>
					<path fill="#077E40" d="M729.691-1784.703c0,0,0.596-0.233,0.172-0.865c-0.408-0.666-0.688-1.056-0.688-1.056l-6.524,4.161
						l1,1.455c0,0,0.343,0.551,0.886,0.117C725.076-1781.325,729.691-1784.703,729.691-1784.703z M723.799-1781.835l-0.305-0.435
						l5.565-3.729c0,0,0.239,0.355,0.374,0.552c0.146,0.234-0.235,0.394-0.305,0.472c-0.069,0.075-4.22,2.944-4.75,3.339
						C724.115-1781.483,724.017-1781.521,723.799-1781.835z"/>
					<polygon fill="#077E40" points="722.857,-1789.611 723.104,-1789.06 723.662,-1789.293 723.436,-1789.884 726.215,-1790.948 
						726.559,-1790.201 727.117,-1790.44 726.644,-1791.653 719.414,-1788.943 719.627,-1788.352 					"/>
				</g>
			</g>
			<polygon fill="#077E40" points="750.576,-1814.787 749.696,-1814.317 750,-1812.233 750.776,-1812.469 			"/>
			<polygon fill="#077E40" points="750.815,-1812.078 750.047,-1811.84 750.219,-1810.032 750.891,-1810.114 			"/>
			<polygon fill="#077E40" points="750.914,-1815.337 750.502,-1818.4 752.318,-1818.676 752.304,-1815.414 			"/>
			<polygon fill="#077E40" points="748.988,-1817.497 749.627,-1814.706 750.57,-1815.218 750.157,-1818.24 			"/>
			<polygon fill="#077E40" points="750.95,-1814.981 751.138,-1812.589 752.304,-1812.589 752.304,-1815.06 			"/>
			<polygon fill="#077E40" points="751.2,-1812.192 751.254,-1810.153 752.322,-1810.153 752.322,-1812.192 			"/>
			<polygon fill="#077E40" points="754.386,-1814.787 755.271,-1814.317 754.969,-1812.233 754.192,-1812.469 			"/>
			<polygon fill="#077E40" points="754.154,-1812.078 754.926,-1811.84 754.748,-1810.032 754.073,-1810.114 			"/>
			<polygon fill="#077E40" points="754.051,-1815.337 754.467,-1818.4 752.658,-1818.676 752.658,-1815.414 			"/>
			<polygon fill="#077E40" points="755.979,-1817.497 755.338,-1814.706 754.399,-1815.218 754.806,-1818.24 			"/>
			<polygon fill="#077E40" points="754.017,-1814.981 753.83,-1812.589 752.658,-1812.589 752.658,-1815.06 			"/>
			<polygon fill="#077E40" points="753.787,-1812.192 753.729,-1810.153 752.658,-1810.153 752.658,-1812.192 			"/>
			<path fill="#077E40" d="M750.618-1790.476l-0.608,0.593h4.959l-0.625-0.593h-0.035c0-0.117,0-0.117,0-0.156
				c0-0.901,0.255-1.22,0.4-1.373v-17.676l-0.658-0.04v19.245h-0.705c0-0.079,0-0.196,0-0.315c0-0.703,0.171-1.097,0.354-1.293
				l-0.009-17.677h-1.032v17.64c0.208,0.233,0.416,0.588,0.416,1.369c0,0.121,0,0.198,0,0.276h-1.158c0-0.079,0-0.156,0-0.276
				c0-0.781,0.205-1.135,0.407-1.369l-0.019-17.64h-1.012l-0.006,17.677c0.18,0.196,0.352,0.59,0.352,1.293c0,0.119,0,0.236,0,0.315
				h-0.727v-19.245l-0.658,0.04v17.676c0.147,0.153,0.401,0.472,0.401,1.373c0,0.039,0,0.039,0,0.156H750.618L750.618-1790.476z"/>
			<g>
				<path fill="#077E40" d="M757.313-1793.147c0,0-0.125,0.117-0.315,0.474c0,0,0.98,0.746,0.951,2.552
					C757.949-1790.121,758.443-1792.045,757.313-1793.147z"/>
				<g>
					<path fill="#077E40" d="M760.883-1793.109c0,0.121-0.037,0.32-0.412,0.32c-0.397,0-0.418-0.396-0.418-0.396
						c-0.12,0.276-0.269,0.396-0.504,0.352c-0.239,0.045-0.387-0.275-0.467-0.312l-0.096,0.117
						c-0.039,0.082-0.098,0.102-0.212,0.312c0,0,0.974,0.788,0.956,2.596c0,0,0.301-1.22-0.129-2.277
						c0.473,0,0.451-0.354,0.451-0.354s0.043,0.313,0.461,0.313C760.914-1792.44,760.904-1792.95,760.883-1793.109z"/>
					<path fill="#077E40" d="M760.883-1793.184c0,0,0,0.037,0,0.075C760.883-1793.147,760.883-1793.184,760.883-1793.184z"/>
				</g>
				<g>
					<path fill="#077E40" d="M765.568-1793.109c0,0.121-0.049,0.32-0.413,0.32c-0.403,0-0.423-0.357-0.423-0.357
						c-0.12,0.275-0.273,0.357-0.498,0.357c-0.244,0-0.393-0.283-0.475-0.357l-0.094,0.169c-0.062,0.073-0.111,0.122-0.213,0.305
						c0,0,0.975,0.746,0.956,2.552c0,0,0.296-1.18-0.129-2.236c0.472,0,0.451-0.395,0.451-0.395s0.039,0.312,0.462,0.312
						C765.588-1792.44,765.588-1792.906,765.568-1793.109z"/>
					<path fill="#077E40" d="M765.554-1793.147c0,0,0.014,0,0.014,0.038C765.568-1793.147,765.554-1793.147,765.554-1793.147z"/>
				</g>
				<path fill="#077E40" d="M762.174-1793.109c0,0-0.059,1.337-1.024,2.477l0.235,0.552c0,0,0.789-0.943,0.789-2.201
					c0,0,0.136,1.454,0.998,2.201l0.14-0.552C762.385-1791.611,762.174-1793.109,762.174-1793.109z"/>
			</g>
			<g>
				<path fill="#077E40" d="M741.342-1791.772c-0.067-0.08-0.106-0.233-0.106-0.395c0-0.232,0.056-0.393,0.166-0.471
					c0.078-0.079,0.167-0.079,0.263-0.079c0.143,0,0.26,0.042,0.338,0.157c0.078,0.079,0.116,0.237,0.116,0.393
					c0,0.197-0.069,0.357-0.194,0.471c-0.082,0.043-0.16,0.043-0.239,0.043C741.528-1791.653,741.418-1791.696,741.342-1791.772z
					 M740.897-1791.416c0.198,0.199,0.414,0.274,0.647,0.274c0.172,0,0.305-0.04,0.424-0.117c0.06-0.042,0.119-0.08,0.168-0.157
					c-0.01,0.234-0.03,0.434-0.082,0.551c-0.075,0.193-0.215,0.312-0.409,0.312c-0.11,0-0.187-0.039-0.255-0.077
					c-0.061-0.04-0.102-0.121-0.109-0.233h-0.598c0.029,0.272,0.126,0.472,0.312,0.588c0.188,0.158,0.393,0.238,0.621,0.238
					c0.479,0,0.803-0.238,0.989-0.713c0.09-0.271,0.137-0.548,0.137-0.941c0-0.391-0.046-0.664-0.146-0.899
					c-0.176-0.434-0.491-0.628-0.952-0.628c-0.306,0-0.55,0.114-0.739,0.317c-0.193,0.189-0.281,0.468-0.281,0.783
					C740.625-1791.808,740.713-1791.575,740.897-1791.416z"/>
				<path fill="#077E40" d="M745.849-1791.065h0.588c0,0.117,0.021,0.237,0.056,0.312c0.082,0.121,0.208,0.198,0.406,0.198
					c0.119,0,0.214-0.039,0.301-0.117c0.089-0.081,0.138-0.193,0.138-0.353c0-0.192-0.088-0.314-0.242-0.393
					c-0.102-0.04-0.25-0.04-0.444-0.04v-0.432c0.194,0,0.334-0.039,0.412-0.08c0.129-0.038,0.2-0.155,0.2-0.353
					c0-0.119-0.039-0.198-0.1-0.274c-0.068-0.078-0.168-0.12-0.296-0.12c-0.137,0-0.243,0.042-0.313,0.12
					c-0.061,0.116-0.096,0.236-0.09,0.392h-0.559c0-0.154,0.032-0.313,0.071-0.433c0.047-0.116,0.126-0.233,0.233-0.353
					c0.078-0.084,0.174-0.121,0.283-0.16c0.109-0.035,0.236-0.035,0.393-0.035c0.293,0,0.531,0.035,0.709,0.195
					c0.176,0.154,0.273,0.353,0.273,0.629c0,0.154-0.057,0.312-0.166,0.432c-0.07,0.075-0.14,0.154-0.209,0.154
					c0.049,0,0.127,0.075,0.239,0.16c0.146,0.155,0.226,0.354,0.226,0.588c0,0.232-0.09,0.47-0.27,0.666
					c-0.172,0.195-0.439,0.316-0.791,0.316c-0.436,0-0.738-0.161-0.902-0.436C745.905-1790.632,745.858-1790.828,745.849-1791.065z"
					/>
				<path fill="#077E40" d="M744.013-1791.533c0.076-0.078,0.164-0.117,0.262-0.117c0.131,0,0.238,0.076,0.326,0.157
					c0.088,0.078,0.13,0.234,0.13,0.394c0,0.155-0.042,0.311-0.11,0.39c-0.078,0.119-0.187,0.158-0.324,0.158
					c-0.127,0-0.244-0.039-0.332-0.158c-0.09-0.077-0.129-0.232-0.129-0.39C743.836-1791.301,743.893-1791.455,744.013-1791.533z
					 M744.996-1792.989c-0.177-0.158-0.402-0.235-0.679-0.235c-0.196,0-0.376,0.04-0.511,0.115
					c-0.137,0.121-0.258,0.238-0.348,0.394c-0.094,0.157-0.166,0.356-0.201,0.631c-0.021,0.157-0.032,0.354-0.032,0.59
					c0,0.394,0.067,0.703,0.216,0.939c0.176,0.354,0.461,0.514,0.854,0.514c0.354,0,0.621-0.121,0.789-0.353
					c0.172-0.199,0.254-0.471,0.254-0.748c0-0.272-0.088-0.509-0.254-0.708c-0.179-0.194-0.404-0.271-0.668-0.271
					c-0.131,0-0.246,0.037-0.346,0.075c-0.098,0.04-0.177,0.077-0.256,0.194c0.021-0.232,0.05-0.431,0.089-0.548
					c0.088-0.236,0.226-0.315,0.421-0.315c0.131,0,0.227,0.042,0.297,0.12c0.035,0.076,0.059,0.117,0.059,0.154h0.6
					C745.25-1792.673,745.16-1792.869,744.996-1792.989z"/>
				<path fill="#077E40" d="M740.293-1790.594h-0.373v-2.516h-0.492c0,0.037-0.01,0.08-0.03,0.121
					c-0.029,0.082-0.069,0.154-0.119,0.234c-0.075,0.079-0.176,0.116-0.292,0.157c-0.027,0-0.077,0-0.129,0v0.43h0.454v1.571h-0.442
					v0.516h1.424V-1790.594L740.293-1790.594z"/>
			</g>
			<path fill="#077E40" d="M763.02-1781.875l-3.392-0.827l2.855-0.232l-2.295-4.712c-2.543,0.747-4.688-0.785-5.51-0.9
				c-0.98-0.159-1.549,0.236-2.303,0.863c-0.691-0.748-1.621-1.142-2.584-0.863c-1.748,0.351-2.808,1.411-5.307,0.822l-2.223,4.596
				l2.925,0.472l-3.414,0.512l-0.817,1.611l10.141-1.34c0.238,0.355,0.748,0.789,1.279,0.749c0.428-0.079,0.844-0.313,1.078-0.709
				l10.387,1.376L763.02-1781.875z M752.334-1781.912c-0.398-0.041-0.586-0.473-0.578-0.512c-0.047-0.432,0.461-1.729,0.578-2.357
				c0.116,0.629,0.639,1.967,0.551,2.357C752.893-1782.385,752.738-1781.953,752.334-1781.912z"/>
		</g>
	</g>
	<g>
		<g>
			<path fill="#231F20" d="M813.795-1796.744c0.017-1.166-0.416-1.949-1.699-1.949c-2.1,0-2.383,2.616-2.383,4.199
				c0,2.133,0.467,4.749,3.133,4.749c0.966,0,1.866-0.367,2.683-0.85v1.716c-0.967,0.417-2.083,0.667-3.133,0.667
				c-3.616,0-4.832-2.766-4.832-5.982c0-3.032,1.017-5.882,4.532-5.882c2.1,0,3.865,1.066,3.865,3.333H813.795z"/>
			<path fill="#231F20" d="M821.757-1788.396v-4.532c0-0.383,0.033-1.399-0.283-1.7c-0.133-0.133-0.35-0.15-0.533-0.15
				c-1.333,0-1.866,1.883-1.866,2.949v3.433h-1.85v-11.497h1.85v5.049h0.033c0.417-1.017,1.217-1.667,2.35-1.667
				c1.517,0,2.149,1.25,2.149,2.616v5.499H821.757z"/>
			<path fill="#231F20" d="M827.104-1792.845c0,1.683,1.183,3.333,2.982,3.333c0.5,0,1.05-0.133,1.517-0.3v1.283
				c-0.717,0.233-1.467,0.316-2.217,0.316c-2.815,0-3.998-1.949-3.998-4.565c0-2.25,1.032-3.732,3.398-3.732
				c2.017,0,3.017,1.283,3.017,3.216v0.45H827.104z M828.654-1795.328c-0.8,0-1.417,0.566-1.5,1.366h2.899
				C830.053-1794.811,829.504-1795.328,828.654-1795.328z"/>
			<path fill="#231F20" d="M842.115-1788.396v-4.532c0-0.383,0.033-1.399-0.283-1.7c-0.133-0.133-0.35-0.15-0.533-0.15
				c-1.199,0-1.6,2.033-1.6,2.949v3.433h-1.85v-4.532c0-0.383,0.033-1.399-0.283-1.7c-0.133-0.133-0.35-0.15-0.533-0.15
				c-1.199,0-1.6,2.033-1.6,2.949v3.433h-1.85v-7.932h1.85v1.217h0.033c0.384-0.883,1.117-1.4,2.083-1.4
				c1.033,0,1.783,0.566,2,1.583h0.033c0.35-0.917,1.232-1.583,2.232-1.583c1.517,0,2.149,1.25,2.149,2.616v5.499H842.115z"/>
			<path fill="#231F20" d="M846.311-1798.06v-1.833h1.85v1.833H846.311z M846.311-1788.396v-7.932h1.85v7.932H846.311z"/>
			<path fill="#231F20" d="M852.124-1788.213c-0.716,0-1.416-0.1-2.1-0.316v-1.6c0.634,0.283,1.316,0.483,2.017,0.483
				c0.467,0,1.366-0.083,1.366-0.717c0-0.933-3.416-1.716-3.416-3.815c0-1.65,1.366-2.333,2.85-2.333c0.616,0,1.199,0.133,1.8,0.3
				v1.566c-0.55-0.283-1.134-0.533-1.767-0.533c-0.417,0-1.233,0.2-1.233,0.733c0,1.049,3.482,1.583,3.482,3.849
				C855.123-1788.829,853.674-1788.213,852.124-1788.213z"/>
			<path fill="#231F20" d="M859.288-1795.045v3.749c0,0.933,0.1,1.783,1.25,1.783c0.283,0,0.566-0.067,0.85-0.133v1.299
				c-0.5,0.083-1.017,0.133-1.517,0.133c-1.616,0-2.433-0.533-2.433-2.183v-4.649h-1.55v-1.283h1.55v-1.883l1.85-1.116v2.999h2.35
				v1.283H859.288z"/>
			<path fill="#231F20" d="M864.684-1791.879v3.482h-1.85v-7.932h1.85v1.467h0.033c0.617-1.1,1.233-1.65,2.566-1.65v1.933
				C865.385-1794.578,864.684-1793.745,864.684-1791.879z"/>
			<path fill="#231F20" d="M871.065-1784.83h-1.699l1.133-3.466l-2.933-8.032h1.933l1.833,5.349h0.033l1.717-5.349h1.933
				L871.065-1784.83z"/>
			<path fill="#231F20" d="M886.242-1788.663c-0.717,0.233-1.483,0.267-2.233,0.267h-2.849v-11.497h2.849
				c3.999,0,5.049,1.966,5.049,5.715C889.057-1791.962,888.641-1789.429,886.242-1788.663z M884.009-1798.51h-0.899v8.731h0.899
				c0.55,0,1.15-0.067,1.634-0.35c1.216-0.75,1.266-2.799,1.266-4.049C886.908-1796.378,886.742-1798.51,884.009-1798.51z"/>
			<path fill="#231F20" d="M892.171-1792.845c0,1.683,1.183,3.333,2.982,3.333c0.5,0,1.05-0.133,1.517-0.3v1.283
				c-0.717,0.233-1.467,0.316-2.217,0.316c-2.815,0-3.998-1.949-3.998-4.565c0-2.25,1.032-3.732,3.398-3.732
				c2.017,0,3.017,1.283,3.017,3.216v0.45H892.171z M893.72-1795.328c-0.8,0-1.417,0.566-1.5,1.366h2.899
				C895.12-1794.811,894.57-1795.328,893.72-1795.328z"/>
			<path fill="#231F20" d="M902.45-1788.213c-0.851,0-1.533-0.417-1.967-1.133h-0.033v4.516h-1.85v-11.498h1.85v1.1h0.033
				c0.3-0.7,1.217-1.283,1.967-1.283c2.315,0,2.732,2.299,2.732,4.149C905.182-1790.595,904.649-1788.213,902.45-1788.213z
				 M901.833-1795.078c-1.166,0-1.383,1.866-1.383,2.716c0,0.9,0.116,2.716,1.383,2.716c1.35,0,1.383-1.75,1.383-2.716
				C903.216-1793.295,903.133-1795.078,901.833-1795.078z"/>
			<path fill="#231F20" d="M911.011-1788.396v-0.917h-0.033c-0.399,0.816-1.199,1.1-2.065,1.1c-1.267,0-2.333-0.733-2.333-2.083
				c0-2.383,2.633-2.633,4.432-2.683v-0.783c0-0.783-0.199-1.45-1.116-1.45c-0.8,0-1.216,0.433-1.216,1.216h-1.8
				c0-1.816,1.366-2.516,3.016-2.516c1.684,0,2.883,0.633,2.883,2.466v5.648H911.011z M908.38-1790.463
				c0,0.633,0.366,0.95,0.982,0.95c1.233,0,1.649-1.367,1.649-2.383C910.129-1791.895,908.38-1791.662,908.38-1790.463z"/>
			<path fill="#231F20" d="M916.808-1791.879v3.482h-1.85v-7.932h1.85v1.467h0.033c0.617-1.1,1.233-1.65,2.566-1.65v1.933
				C917.509-1794.578,916.808-1793.745,916.808-1791.879z"/>
			<path fill="#231F20" d="M923.438-1795.045v3.749c0,0.933,0.1,1.783,1.25,1.783c0.283,0,0.566-0.067,0.85-0.133v1.299
				c-0.5,0.083-1.017,0.133-1.517,0.133c-1.616,0-2.433-0.533-2.433-2.183v-4.649h-1.55v-1.283h1.55v-1.883l1.85-1.116v2.999h2.35
				v1.283H923.438z"/>
			<path fill="#231F20" d="M935.551-1788.396v-4.532c0-0.383,0.033-1.399-0.283-1.7c-0.133-0.133-0.35-0.15-0.533-0.15
				c-1.199,0-1.6,2.033-1.6,2.949v3.433h-1.85v-4.532c0-0.383,0.033-1.399-0.283-1.7c-0.133-0.133-0.35-0.15-0.533-0.15
				c-1.199,0-1.6,2.033-1.6,2.949v3.433h-1.85v-7.932h1.85v1.217h0.033c0.384-0.883,1.117-1.4,2.083-1.4
				c1.033,0,1.783,0.566,2,1.583h0.033c0.35-0.917,1.232-1.583,2.232-1.583c1.517,0,2.149,1.25,2.149,2.616v5.499H935.551z"/>
			<path fill="#231F20" d="M940.896-1792.845c0,1.683,1.183,3.333,2.982,3.333c0.5,0,1.05-0.133,1.517-0.3v1.283
				c-0.717,0.233-1.467,0.316-2.216,0.316c-2.816,0-4-1.949-4-4.565c0-2.25,1.033-3.732,3.399-3.732
				c2.017,0,3.017,1.283,3.017,3.216v0.45H940.896z M942.446-1795.328c-0.8,0-1.417,0.566-1.5,1.366h2.899
				C943.845-1794.811,943.296-1795.328,942.446-1795.328z"/>
			<path fill="#231F20" d="M951.908-1788.396v-4.532c0-0.383,0.033-1.399-0.283-1.7c-0.133-0.133-0.35-0.15-0.533-0.15
				c-1.333,0-1.866,1.883-1.866,2.949v3.433h-1.85v-7.932h1.85v1.483h0.033c0.417-1.017,1.217-1.667,2.35-1.667
				c1.517,0,2.149,1.25,2.149,2.616v5.499H951.908z"/>
			<path fill="#231F20" d="M958.604-1795.045v3.749c0,0.933,0.1,1.783,1.25,1.783c0.283,0,0.566-0.067,0.85-0.133v1.299
				c-0.5,0.083-1.017,0.133-1.517,0.133c-1.616,0-2.433-0.533-2.433-2.183v-4.649h-1.55v-1.283h1.55v-1.883l1.85-1.116v2.999h2.35
				v1.283H958.604z"/>
		</g>
		<g>
			<path fill="#58595B" d="M812.62-1811.998c-0.307,0.137-1.056,0.433-1.911,0.433c-1.605,0-2.904-0.993-2.904-3.844
				c0-1.932,0.634-3.674,2.756-3.674c1.489,0,2.345,0.866,2.345,2.112h-1.225c0-0.443-0.127-1.267-1.151-1.267
				c-1.373,0-1.562,1.668-1.562,2.661c0,1.827,0.443,3.168,1.953,3.168c0.897,0,1.51-0.454,1.7-0.57V-1811.998z"/>
			<path fill="#58595B" d="M813.476-1815.324c0-1.975,0.603-3.759,2.841-3.759s2.851,1.784,2.851,3.759
				c0,1.964-0.612,3.759-2.851,3.759S813.476-1813.36,813.476-1815.324z M816.317-1812.41c1.457,0,1.689-1.721,1.689-2.915
				c0-1.193-0.232-2.914-1.689-2.914s-1.679,1.721-1.679,2.914C814.638-1814.131,814.86-1812.41,816.317-1812.41z"/>
			<path fill="#58595B" d="M820.49-1818.967h1.056v6.441h2.799v0.845h-3.854V-1818.967z"/>
			<path fill="#58595B" d="M825.179-1818.967h1.056v6.441h2.799v0.845h-3.854V-1818.967z"/>
			<path fill="#58595B" d="M829.869-1818.967h4.023v0.845h-2.968v2.228h2.819v0.845h-2.819v2.523h3.062v0.845h-4.118V-1818.967z"/>
			<path fill="#58595B" d="M840.124-1812.252c-0.222,0.169-1.057,0.687-2.26,0.687c-1.88,0-3.073-1.162-3.073-3.981
				c0-2.006,0.792-3.537,2.862-3.537c1.319,0,2.428,0.665,2.428,2.069h-1.172c0-0.623-0.349-1.225-1.267-1.225
				c-1.373,0-1.689,1.373-1.689,2.692c0,1.383,0.2,3.136,1.879,3.136c0.645,0,1.162-0.18,1.235-0.285v-2.344h-1.552v-0.845h2.608
				V-1812.252z"/>
			<path fill="#58595B" d="M841.604-1818.967h4.023v0.845h-2.968v2.228h2.819v0.845h-2.819v2.523h3.062v0.845h-4.118V-1818.967z"/>
			<path fill="#58595B" d="M849.652-1815.324c0-1.975,0.603-3.759,2.841-3.759s2.851,1.784,2.851,3.759
				c0,1.964-0.612,3.759-2.851,3.759S849.652-1813.36,849.652-1815.324z M852.493-1812.41c1.457,0,1.689-1.721,1.689-2.915
				c0-1.193-0.232-2.914-1.689-2.914s-1.679,1.721-1.679,2.914C850.814-1814.131,851.036-1812.41,852.493-1812.41z"/>
			<path fill="#58595B" d="M856.666-1818.967h3.907v0.845h-2.852v2.228h2.703v0.845h-2.703v3.368h-1.056V-1818.967z"/>
			<path fill="#58595B" d="M867.323-1815.641c0.708,0.401,1.531,0.855,1.531,2.006c0,1.404-1.13,2.07-2.629,2.07
				c-0.866,0-1.626-0.211-1.849-0.285v-1.098c0.423,0.243,1.12,0.539,1.933,0.539c0.687,0,1.384-0.285,1.384-1.077
				c0-0.76-0.613-1.066-1.183-1.404l-0.666-0.391c-0.676-0.391-1.583-0.803-1.583-1.922c0-1.299,1.056-1.879,2.418-1.879
				c0.696,0,1.414,0.148,1.657,0.211v0.993c-0.137-0.042-0.972-0.359-1.71-0.359c-0.719,0-1.204,0.338-1.204,0.95
				c0,0.57,0.644,0.919,1.183,1.225L867.323-1815.641z"/>
			<path fill="#58595B" d="M874.421-1811.998c-0.307,0.137-1.056,0.433-1.911,0.433c-1.605,0-2.904-0.993-2.904-3.844
				c0-1.932,0.634-3.674,2.756-3.674c1.489,0,2.345,0.866,2.345,2.112h-1.225c0-0.443-0.127-1.267-1.151-1.267
				c-1.373,0-1.562,1.668-1.562,2.661c0,1.827,0.443,3.168,1.953,3.168c0.897,0,1.51-0.454,1.7-0.57V-1811.998z"/>
			<path fill="#58595B" d="M875.636-1818.967h1.056v7.286h-1.056V-1818.967z"/>
			<path fill="#58595B" d="M878.372-1818.967h4.023v0.845h-2.968v2.228h2.819v0.845h-2.819v2.523h3.062v0.845h-4.118V-1818.967z"/>
			<path fill="#58595B" d="M883.653-1818.967h1.32l2.872,5.702h0.021v-5.702h0.95v7.286h-1.246l-2.945-5.839h-0.021v5.839h-0.95
				V-1818.967z"/>
			<path fill="#58595B" d="M894.954-1811.998c-0.307,0.137-1.056,0.433-1.911,0.433c-1.605,0-2.904-0.993-2.904-3.844
				c0-1.932,0.634-3.674,2.756-3.674c1.489,0,2.345,0.866,2.345,2.112h-1.225c0-0.443-0.127-1.267-1.151-1.267
				c-1.373,0-1.562,1.668-1.562,2.661c0,1.827,0.443,3.168,1.953,3.168c0.897,0,1.51-0.454,1.7-0.57V-1811.998z"/>
			<path fill="#58595B" d="M896.17-1818.967h4.023v0.845h-2.968v2.228h2.819v0.845h-2.819v2.523h3.062v0.845h-4.118V-1818.967z"/>
			<path fill="#58595B" d="M904.091-1815.641c0.708,0.401,1.531,0.855,1.531,2.006c0,1.404-1.13,2.07-2.629,2.07
				c-0.866,0-1.626-0.211-1.849-0.285v-1.098c0.423,0.243,1.12,0.539,1.933,0.539c0.687,0,1.384-0.285,1.384-1.077
				c0-0.76-0.613-1.066-1.183-1.404l-0.666-0.391c-0.676-0.391-1.583-0.803-1.583-1.922c0-1.299,1.056-1.879,2.418-1.879
				c0.696,0,1.414,0.148,1.657,0.211v0.993c-0.137-0.042-0.972-0.359-1.71-0.359c-0.719,0-1.204,0.338-1.204,0.95
				c0,0.57,0.644,0.919,1.183,1.225L904.091-1815.641z"/>
		</g>
	</g>
</g>
</svg>
